<?xml version="1.0" encoding="UTF-8"?>
<svg xmlns="http://www.w3.org/2000/svg" viewBox="0 0 438.63 329.79">
  <defs>
    <style>
      .cls-1 {
        fill: #596b9b;
      }

      .cls-2 {
        fill: #ff9d8c;
      }

      .cls-3 {
        fill: #8593b6;
      }

      .cls-4 {
        fill: #43588e;
      }

      .cls-5 {
        fill: #fff;
      }

      .cls-6, .cls-7 {
        fill: #ddecff;
      }

      .cls-8 {
        fill: #1c83ff;
      }

      .cls-9 {
        fill: #6baeff;
      }

      .cls-10 {
        isolation: isolate;
      }

      .cls-11 {
        fill: #7a89af;
      }

      .cls-12 {
        fill: #8e9bbb;
      }

      .cls-13 {
        fill: #d9dee8;
      }

      .cls-14 {
        fill: #dee1eb;
      }

      .cls-15 {
        fill: #6f7fa9;
      }

      .cls-16 {
        fill: #223a7a;
      }

      .cls-17 {
        fill: #9ca6c3;
      }

      .cls-7, .cls-18, .cls-19 {
        mix-blend-mode: multiply;
      }

      .cls-20 {
        fill: #f6f7fa;
      }

      .cls-19 {
        fill: #bdc4d7;
      }

      .cls-21 {
        fill: #818fb3;
      }
    </style>
  </defs>
  <g class="cls-10">
    <g id="BACKGROUND">
      <path class="cls-6" d="m363.46,312.41s54.62-38.9,70.34-105.1c15.72-66.21-8.28-146.48-53.79-187.03-45.52-40.55-127.45-13.24-163.86,20.69l-36.41,33.93s-34.76,19.03-80.28,17.38c-45.52-1.66-86.07,60.41-96.83,109.24-10.76,48.83,14.9,113.38,14.9,113.38l345.93-2.48Z"/>
      <path class="cls-7" d="m388.29,322.34s38.07-20.69,48-68.69c9.93-48-33.1-91.86-37.24-115.86-4.14-24,4.97-53.79-33.1-76.97-38.07-23.17-105.93-14.9-131.59-20.69-25.66-5.79-55.45-45.52-106.76-36.41C76.29,12.82,26.64,40.13,24.15,99.72c-2.48,59.59,16.55,61.24-2.48,93.52C2.64,225.51-4.81,247.86,4.29,280.96c9.1,33.1,28.14,42.21,28.14,42.21l355.86-.83Z"/>
      <path class="cls-7" d="m308.8,311.58c2.37-2.48,37.1-72-1.58-135.72-38.68-63.72-135.77-56.28-174.45-31.45-38.68,24.83-57.62,57.1-61.57,91.03-3.95,33.93,22.1,86.9,22.1,86.9l215.5-10.76Z"/>
    </g>
    <g id="OBJECTS">
      <path class="cls-8" d="m321.7,300.41v-74.48s.83-20.07-9.72-25.86c-10.55-5.79-55.03-2.69-55.03-2.69v103.03s64.76,0,64.76,0Z"/>
      <g>
        <path class="cls-2" d="m243.05,127.65s2.69,22.55,3.72,24.41l1.03,1.86,5.17,3.52s-9.93,14.07-22.14,16.34c-12.21,2.28-11.17-4.97-11.17-4.97l1.86-3.93-2.48-21.52s22.14-10.14,24-15.72Z"/>
        <path class="cls-5" d="m259.39,159.31l-8.07-3.52s-5.17,8.48-17.17,13.45-12.21,2.07-12.83,0c-.62-2.07.21-4.34.21-4.34l-.89-7.24-4.8,1.6-16.66,134.75,42.83,2.07,17.38-136.76Z"/>
        <path class="cls-16" d="m219.88,157.79s-2.9,6.69-5.59,22.41c-2.69,15.72-5.17,42.21-5.79,60.41s-1.03,59.79-1.03,59.79c0,0-53.38,0-54,0s-4.34-20.48-4.34-20.48c0,0,23.59-20.21,24.83-23.52.83-2.21.41-43.1,3.93-61.93,3.52-18.83,8.07-22.62,17.59-27.31,9.84-4.85,24.41-9.38,24.41-9.38Z"/>
        <path class="cls-3" d="m191.74,276.7c.28,0,.5-.22.5-.5,0-1.48.26-22.5.52-42.82.25-20.33.52-41.35.52-42.83,0-.28-.22-.5-.5-.5s-.5.22-.5.5c0,1.48-.26,22.5-.52,42.82-.25,20.33-.52,41.35-.52,42.83,0,.28.22.5.5.5Z"/>
        <path class="cls-16" d="m299.33,271.65l.41,28.76h-62.9s-2.69-24.41-1.66-26.69c1.03-2.28,64.14-2.07,64.14-2.07Z"/>
        <g class="cls-18">
          <path class="cls-12" d="m229.33,151.44c-2.56,2.07-6.07,3.72-8.8,4.73l-1.48-12.8s16.63-7.62,22.27-13.28c-1.18,6.44-4.08,14.97-11.99,21.35Z"/>
        </g>
        <path class="cls-2" d="m199.6,85.65s-4.34,7.45-5.17,16.55c-.83,9.1,0,32.48,7.45,42.41,7.45,9.93,22.97,7.03,30,1.03,6.46-5.51,12.83-11.59,14.48-23.59,1.66-12-3.52-34.76-18.21-39.52-14.69-4.76-28.55,3.1-28.55,3.1Z"/>
        <g>
          <path class="cls-2" d="m180.94,287.4s.73,0,1.84-.03c.26,0,.55,0,.85,0,1.07-.03,2.37-.06,3.68-.1.29,0,.59-.02.88-.03,1.3-.03,2.41.13,3.45.07h.03c.22,0,.54.02.8.03.13.01.25.02.33.01.6-.11.72-.25,1.37-.54.84-.38,12.21-2.92,21.46-2.86,9.24.04,17.53.67,18.88-.46,1.36-1.15,2.18-12.76-5.71-13.52l-9.7,3.68s-22.15-2.63-30.27,3.36c-8.14,5.99-7.89,10.4-7.89,10.4Z"/>
          <path class="cls-16" d="m191.67,287.3c.22,0,.54.02.8.03.2-.32.62-.9.85-1.14,2.5-2.55,8.54-4.2,10.73-4.73.2-.05.33-.25.28-.45-.04-.2-.25-.32-.46-.28-3.19.77-9.96,2.74-11.88,5.97-.06.09-.22.4-.32.6Z"/>
          <path class="cls-16" d="m187.3,287.26c.29,0,.59-.01.88-.03,2.73-4.98,7.2-6.41,12.71-8.18l.33-.11c.19-.06.3-.28.24-.48-.06-.19-.27-.3-.48-.24l-.32.11c-5.84,1.87-10.53,3.38-13.37,8.93Z"/>
          <path class="cls-16" d="m182.78,287.37c.26,0,.55,0,.85-.01,1.66-3.48,7.14-9.31,14.38-10.66.21-.04.34-.23.31-.44-.04-.2-.24-.33-.44-.3-7.47,1.4-13.49,7.5-15.11,11.41Z"/>
        </g>
        <path class="cls-16" d="m241.39,111.82s-4.55-2.17-7.76-8.28c-3.21-6.1-2.79-11.59-2.79-11.59,0,0-5.79-.93-14.48,1.66-8.69,2.59-19.03,6.1-27.72,1.14-8.69-4.97-8.69-12.93-4.45-16.24,4.75-3.71,14.17-1.45,14.17-1.45,0,0-3.62-3.52-1.66-5.59,1.97-2.07,9.1.62,9.1.62,0,0,8.69-6.93,25.14-6.1,16.45.83,24.31,12.31,25.24,25.14.93,12.83-3.72,25.66-3.72,25.66l-11.07-4.97Z"/>
        <g class="cls-18">
          <path class="cls-12" d="m208.02,114.93c.93,2.3.91,4.97,1.14,7.4.18,1.9.53,4.11-1.21,5.39-.83.61-4.76,2.26-2.74,3.6.77.51,2.06.37,2.94.33.6-.03,1.21-.05,1.82-.1.65-.05,1.28-.24,1.93-.25.38,0,.5.5.19.7-1.04.65-2.58.86-3.79.9-1.22.05-2.04,0-3.14-.55-.67-.33-1.33-.81-1.43-1.61-.12-.9.56-1.71,1.24-2.22.78-.58,1.74-.85,2.53-1.42,1.1-.78,1.01-2.11.93-3.33-.19-2.94-.86-5.83-1.12-8.76-.04-.45.58-.45.72-.1h0Z"/>
        </g>
        <path class="cls-16" d="m199.57,121.81c.31,1.74,1.58,2.98,2.83,2.76,1.26-.22,2.02-1.82,1.72-3.56-.31-1.74-1.58-2.98-2.83-2.76-1.26.22-2.02,1.82-1.72,3.56Z"/>
        <path class="cls-16" d="m215.4,120.43c.28,1.88,1.61,3.24,2.96,3.04s2.23-1.89,1.95-3.77c-.28-1.88-1.61-3.24-2.96-3.04s-2.23,1.89-1.95,3.77Z"/>
        <path class="cls-16" d="m203.25,114.62c-.97.16-1.94,0-2.92.07-.23.02-.47.05-.7.07-.17.02.31-.05.08-.01-.05,0-.1.02-.15.02-.12.02-.24.05-.36.08-.21.05-.41.13-.62.17-.19.04-.4.09-.59.08-.11-.01-.21-.03-.32-.04.07.01.13.02.2.04,0,.02-.36-.04-.4-.04-.55-.13-.9-.77-.74-1.31.04-.16.11-.29.21-.42.04-.05.08-.11.13-.16-.04.04-.08.09-.12.13.04-.06.08-.11.13-.17.05-.09.13-.17.22-.22.08-.06.15-.12.23-.18.26-.18.59-.28.9-.36.58-.15,1.18-.22,1.78-.23.59,0,1.18.06,1.76.14.52.07,1.09.25,1.51.56.32.24.52.55.47.97-.05.35-.32.75-.7.81h0Z"/>
        <path class="cls-16" d="m214.29,111.85c.13-.08.27-.15.4-.21.12-.05.44-.22.2-.09.09-.05.18-.1.27-.14.4-.2.82-.34,1.25-.45.94-.24,1.94-.3,2.91-.2,1.03.11,1.98.36,2.87.9.13.08.26.15.36.26.07.09.14.18.21.27-.02-.03-.04-.06-.06-.09.28.19.44.51.43.84,0,.32-.17.59-.45.74-.34.19-.66.1-1,0h.52c-.29.05-.49.06-.78,0-.01,0-.28-.07-.1-.03.17.04-.28-.03-.33-.04-.06,0-.37-.04-.04,0-.06,0-.12-.01-.18-.02-.16-.02-.31-.04-.47-.05-.68-.05-1.36-.08-2.05-.11-.63-.02-1.28-.03-1.92,0-.27.01-.54.02-.81.03-.15,0-.09.03.02,0-.06.02-.11.03-.17.04-.11.03-.22.07-.33.11-.44.17-.97-.15-1.13-.56-.18-.44-.03-.95.39-1.2h0Z"/>
        <path class="cls-16" d="m209.38,140.62c-.95-1.91-2.68-3.31-4.67-4.21,1.73-.18,9.92-.93,11.98.24,2.31,1.31-.43,6.59-5.21,6.85-.5.03-.96-.01-1.4-.08-.04-.96-.26-1.92-.7-2.8Z"/>
        <path class="cls-14" d="m247.19,129.51s-.83,3.21-5.59,6.93c-4.76,3.72-11.66,6.45-11.66,6.45l-.55-2.41s7.14-3.1,10.45-6.52c3.31-3.41,3.72-5.28,3.72-5.28l3.62.83Z"/>
        <path class="cls-16" d="m228.57,138.69c-3.83-.18-5.97,2.85-6.23,4.81-.27,1.96,1.57,4.16,5.88,2.23,5.35-2.4,4.19-6.86.36-7.04Z"/>
        <path class="cls-14" d="m244.19,105.82s-1.65-11.89-9.62-19.97c-15.21-15.41-28.14-14.48-28.14-14.48,0,0,.1-2.17,4.97-3.83,4.57-1.55,6.62-.72,6.62-.72,0,0,12.52,1.03,23.07,12.72,10.55,11.69,11.69,26.59,11.69,26.59l-8.59-.31Z"/>
        <g>
          <path class="cls-5" d="m245.33,104.37c9.96-1.69,15.52,6.1,15.93,13.97.41,7.86-5.3,13.84-12.93,13.24-17.17-1.34-15.21-25.14-3-27.21Z"/>
          <path class="cls-21" d="m250.29,123.94c2.63,0,4.85-1.32,6.12-3.65,1.36-2.49,1.25-5.56-.29-7.82-.12-.17-.35-.21-.52-.1-.17.12-.22.35-.1.52,1.38,2.03,1.48,4.79.25,7.04-1.16,2.13-3.22,3.34-5.66,3.26-2.28-.06-4.21-1.1-5.43-2.93-1.4-2.09-1.72-4.97-.82-7.35.9-2.36,3.35-3.96,5.58-3.67.2.03.39-.12.42-.32.03-.2-.12-.39-.32-.42-2.61-.35-5.35,1.44-6.38,4.15-.99,2.6-.63,5.75.9,8.03,1.37,2.04,3.51,3.2,6.03,3.26.07,0,.14,0,.21,0Z"/>
        </g>
        <path class="cls-16" d="m257.53,156.41s30.21,7.45,40.76,19.45,15.52,71.17,15.72,82.14-7.45,15.52-12,18.62c-4.55,3.1-24.62,8.69-40.76,9.52-16.14.83-31.45,0-31.45,0,0,0,.05-3.52-2.43-8.69-2.3-4.8-5.22-5.79-5.22-5.79l13.86-4.97s2.43-43.49,6.21-64.55c4.34-24.21,15.31-45.72,15.31-45.72Z"/>
        <path class="cls-3" d="m207.46,259.74c.07,0,.14-.01.2-.04.25-.11.37-.41.25-.66-2.83-6.39-5.76-18.92-7.41-27.72l-.14-.71c-.5-2.59-1.12-5.8.12-8.03.63-1.13,2.06-3.59,3.44-5.95,1.43-2.45,2.77-4.77,3.15-5.46.73-1.35-1.57-4.96-4.89-9.91-.9-1.34-1.67-2.49-2.12-3.27-1.18-2.05-.4-3.92.52-6.1l.31-.75c.83-2.03,1.77-4.06,2.68-6.03.37-.8.74-1.61,1.11-2.42.49-1.07.97-2.16,1.47-3.26,2.92-6.52,5.95-13.26,9.82-19.77.14-.24.06-.54-.17-.69-.24-.14-.54-.06-.69.17-3.9,6.56-6.94,13.33-9.87,19.87-.49,1.1-.98,2.19-1.46,3.25-.37.81-.74,1.61-1.11,2.41-.91,1.98-1.86,4.02-2.69,6.07l-.31.74c-.93,2.21-1.89,4.51-.46,6.98.47.81,1.25,1.98,2.16,3.33,1.73,2.58,5.33,7.95,4.84,8.88-.37.68-1.71,2.99-3.13,5.43-1.38,2.37-2.81,4.83-3.45,5.97-1.42,2.54-.76,5.96-.23,8.7l.14.71c.6,3.2,3.79,19.6,7.48,27.94.08.19.27.3.46.3Z"/>
        <path class="cls-3" d="m236.95,261.49c.13,0,.26-.05.35-.15,2.35-2.37,13.69-22,14.53-25.69.46-2.02-.7-7.15-1.82-12.11-.87-3.84-1.77-7.81-1.51-8.89.38-1.61,3.28-3.98,6.08-6.27,3.39-2.77,6.89-5.63,7.57-8.21.77-2.93.11-21.27-.32-33.4-.16-4.36-.28-7.81-.28-9.04,0-.28-.22-.5-.5-.5h0c-.28,0-.5.22-.5.5,0,1.25.12,4.7.28,9.07.41,11.34,1.09,30.32.36,33.11-.6,2.26-4.12,5.14-7.23,7.68-3.07,2.51-5.96,4.87-6.42,6.81-.31,1.3.53,5.03,1.51,9.34,1.05,4.62,2.23,9.86,1.82,11.66-.83,3.62-11.96,22.88-14.27,25.21-.19.2-.19.51,0,.71.1.1.22.15.35.15Z"/>
        <path class="cls-3" d="m277.6,252.91s.05,0,.07,0c.27-.04.46-.29.43-.57-.37-2.6-6.11-54.4-6.37-58.37-.02-.28-.26-.49-.53-.47-.28.02-.48.26-.47.53.26,3.97,6.01,55.84,6.38,58.44.04.25.25.43.49.43Z"/>
        <path class="cls-3" d="m236.43,266.98c.06,0,.13-.01.19-.04,1.27-.52,6.89-2.41,14-4.81,14.36-4.84,34.02-11.47,37.76-13.42.25-.13.34-.43.21-.67-.13-.25-.43-.34-.67-.21-3.67,1.91-24.1,8.8-37.62,13.36-7.13,2.41-12.76,4.3-14.06,4.83-.26.1-.38.4-.28.65.08.19.27.31.46.31Z"/>
        <path class="cls-3" d="m243.33,287.6c12.64,0,37.13-2.28,55.74-8.86.26-.09.4-.38.3-.64-.09-.26-.38-.4-.64-.3-23.51,8.32-56.4,9.74-62.52,8.36-.27-.06-.54.11-.6.38-.06.27.11.54.38.6,1.32.3,3.89.46,7.32.46Z"/>
      </g>
      <g>
        <g>
          <g>
            <path class="cls-9" d="m393.74,151.63c-.04-2.87-.53-5.7-.5-8.58.03-2.81.3-5.6.35-8.4.05-2.88-.36-7.02-3.94-7.45-4.3-.51-8.85,3.32-10.9,6.76-.96,1.62-1.68,3.57-1.31,5.47.32,1.67,1.32,3.1,2.15,4.55.88,1.55,1.49,3.14-.02,4.53-1.58,1.46-3.79,2.27-5.52,3.59-3.52,2.7-4.87,6.87-5.14,11.18-.19,3.05,0,6.13-.11,9.18-.11,3.07-.35,6.13-.7,9.18,0,.03-.02.05-.03.08-.18.67-.21,1.56-.04.9.4-1.51,2.84-3.49,3.75-4.69,1.26-1.65,2.47-3.32,3.83-4.89,3.44-3.99,8.41-6.2,12.33-9.65,3.59-3.16,5.84-6.87,5.77-11.75Z"/>
            <path class="cls-9" d="m354.54,216.35c.46,1.48,1.2,3.13,1.33,4.69.04.47,5.15.14,6.82-.6,1.1-.49,2.1-1.18,2.86-2.13,1.61-2.01,2.06-4.69,2.92-7.05,1.18-3.26,3.33-5.41,6.63-6.52,2.86-.96,6.08-1.41,9.09-1.5,4.3-.13,9.83.57,11.6-4.44.59-1.67.44-3.34.3-5.07-.14-1.84,0-3.4.9-5.02,1.53-2.75,3.69-5.15,5.35-7.83,1.57-2.52,2.88-5.28,3.01-8.29.1-2.4-.44-5.54-2.41-7.16-3.72-3.06-8.78,1.72-10.91,4.52-2.86,3.76-4.03,9.08-7.89,12.05-1.18.91-2.31,1.04-3.74.66-1.16-.31-2.26-.73-3.48-.74-1.91-.01-3.64.72-5.06,1.97-2.36,2.07-3.89,5.05-5.15,7.87-1.35,3-2.31,6.15-3.33,9.28-1.24,3.78-2.73,7.47-4.02,11.23-.72,2.12-1.03,4.53-1.91,6.64.06-.48.11-.96.17-1.42.28-2.27.48-4.54.64-6.82.18-2.48.27-4.94.26-7.42,0-1.98.32-5.23-1.26-11.35-.99-3.84-3.11-7.45-3-11.52.12-4.23,1.72-8.3,3.07-12.26,1.63-4.79,2.83-9.6,2.23-14.69-.2-1.66-.57-3.67-1.89-4.83-1.34-1.18-3.12-.71-4.53.08-5.39,3.01-5.82,9.57-5.59,15.08.16,3.8,1.3,7.23,2.06,10.92.15.74,1.07,4.89.06,5.14-.6.15-1.23-.93-1.43-1.38-.34-.76-.6-1.56-.87-2.35-.69-2.02-1.34-4.07-2.27-5.99-.53-1.1-1.36-2.83-2.75-3.01-1.79-.23-2.59,2.01-2.7,3.39-.23,2.88.62,5.75.73,8.63.14,3.91-.07,7.89,1.38,11.6,1.42,3.64,3.76,6.81,5.88,10.06,1.54,2.37,2.79,4.8,3.89,7.41,1.13,2.69,2.15,5.4,3.02,8.18Z"/>
            <path class="cls-9" d="m326.99,217.03c.18,2.4,1.09,4.62,2.72,6.41,1.76,1.92,4.27,2.52,6.41,3.85,1.13.7,2.26,1.7,2.52,3.07.28,1.45-.54,2.72-1.24,3.91-1.27,2.17-2.49,4.26-2.78,6.8-.22,1.93-.02,4.1,1.46,5.53,1.95,1.87,5.04,2.12,7.38,3.31,5.16,2.63,8.95,6.93,12.06,11.71.26.41,1.03.14.82-.35-.07-.17-.15-.33-.23-.5-.45-3.28-1.3-6.47-2.08-9.68-.79-3.21-1.3-6.47-1.93-9.71-.93-4.82-1.89-9.85-3.9-14.36-.74-1.67-1.75-3.26-3.19-4.4-1.61-1.28-3.51-1.8-5.45-2.4-3.01-.93-5.08-2.62-6.22-5.6-1.01-2.64-1.65-5.52-2-8.31-.2-1.59-.1-3.19-.23-4.79-.08-.96-.12-2.53-1.09-3.07-.17-.1-.43-.05-.53.14-1.36,2.63-1.27,5.79-1.71,8.65-.49,3.16-1.04,6.6-.8,9.8Z"/>
            <path class="cls-9" d="m360.25,240.66c-2.83,6.35-4.08,12.95-4.15,19.89,0,.26.49.49.63.36.27.2.1.61.12.16.28-4.67,3.64-9.52,7.21-12.38,3.5-2.81,7.66-4.55,11.77-6.27,1.9-.79,3.79-1.61,5.65-2.51,1.43-.69,2.95-1.38,4.09-2.51,2.35-2.31,1.29-5.96-1.08-7.85-2-1.59-4.41-1.74-6.72-2.47,1.86-2.48,4.42-4.33,6.62-6.48,1.47-1.43,3.7-3.67,3.15-5.95-.95-3.89-5.63-1.29-7.62.03-3.72,2.47-7.03,5.52-9.77,9.05-3.96,5.1-7.27,11.03-9.9,16.92Z"/>
          </g>
          <path class="cls-4" d="m379.62,159.18c-1.51,3.14-3.09,6.21-4.77,9.27-1.62,2.95-3.23,5.87-4.44,9.02-1.49,3.87-3.05,7.68-4.62,11.52-1.64,3.99-3.1,8.05-4.27,12.2-2.29,8.1-3.99,16.43-4.83,24.81-.43,4.26-.62,8.54-.5,12.82.09,3.34.47,6.65.78,9.98.33,3.46.56,6.97.27,10.44-.24,2.9-.7,6.36-2.96,8.43-.44.41-1.07-.1-.81-.62,2.68-5.49,2.53-11.48,2.02-17.43-.28-3.29-.67-6.56-.79-9.86-.14-4.2.02-8.41.42-12.59.78-8.22,2.42-16.34,4.54-24.31,1.09-4.09,2.44-8.1,3.99-12.03,1.56-3.94,3.36-7.78,4.87-11.74,2.73-7.17,6.89-13.52,10.58-20.2.19-.35.69-.04.53.31h0Z"/>
          <path class="cls-4" d="m356.56,217.79c-.43-5.22-.9-10.25-2.65-15.22-.82-2.32-1.81-4.58-2.61-6.91-.65-1.93-1.63-4.57-1.13-6.62.06-.23.39-.22.45,0,.34,1.17.3,2.45.54,3.65.24,1.17.55,2.31.91,3.45.77,2.41,1.78,4.72,2.65,7.1,1.69,4.59,2.56,9.67,2.19,14.55-.02.23-.34.23-.36,0h0Z"/>
          <path class="cls-4" d="m386.8,187.79c-2.07,5-8.3,5.29-12.84,6.41-3.24.8-5.63,2.96-7.35,5.77-1.88,3.07-3.15,6.67-4.2,10.1-.01.04-.07.02-.06-.02,1.27-6,3.09-13.22,9.27-16.01,4.96-2.24,11.49-1.11,14.65-6.47.16-.26.64-.09.51.22h0Z"/>
          <path class="cls-4" d="m359.83,217c-.25.33-.47.68-.73,1.01-.13.16-.25.31-.41.44-.16.13-.35.3-.58.29-.09,0-.16-.11-.11-.19.1-.17.29-.27.43-.39.15-.13.3-.26.44-.4.29-.27.55-.57.84-.85.05-.05.16.02.11.09h0Z"/>
          <path class="cls-4" d="m372.79,232.87c-3.57,2.93-6.87,6.4-9.49,10.21-1.25,1.82-2.41,3.74-3.46,5.68-1.14,2.12-1.9,4.36-2.79,6.59-.07.17-.38.17-.35-.05.5-4.71,3.48-8.74,5.86-12.66,1.24-2.03,2.78-3.67,4.44-5.37,1.71-1.75,3.46-3.41,5.46-4.82.24-.17.56.23.32.42h0Z"/>
          <path class="cls-4" d="m344.33,227.33c1.72.98,1.78,3.69,1.81,5.43.06,3.34-.76,6.47.7,9.65,1.32,2.87,3.43,5.27,5.09,7.93,1.55,2.5,3.09,5.69,3.05,8.69,0,.17-.27.27-.35.09-.63-1.36-.85-2.91-1.3-4.34-.5-1.61-1.21-3.07-2.12-4.48-1.6-2.48-3.56-4.73-4.86-7.39-1.37-2.81-1.17-5.59-1.08-8.63.06-1.94.25-5.06-1.31-6.5-.24-.23.07-.61.35-.45h0Z"/>
        </g>
        <path class="cls-5" d="m355.84,259.34c6.93-.1,20.14-.17,20.14-.17l-3.27,24.26c-.74,5.46-5.39,9.53-10.9,9.53h-5.69s-.55,0-.55,0h-5.69c-5.51,0-10.17-4.07-10.9-9.53l-3.27-24.26s13.21.08,20.14.17Z"/>
      </g>
      <g>
        <g>
          <polygon class="cls-20" points="20.74 214.75 60.29 293.1 175.6 293.93 140.01 213.65 20.74 214.75"/>
          <path class="cls-13" d="m252.13,293.44l-.02-6.27h-74.65s-34.34-75.31-34.34-75.31H23.74s-3,2.9-3,2.9h116.62s35.69,78.62,35.69,78.62c0,0,79.08-.14,79.08.06Z"/>
          <path class="cls-13" d="m80.62,257.99c1.3,3.91,8.37,6.93,15.79,6.74,7.42-.19,12.38-3.5,11.07-7.41-1.3-3.91-8.37-6.93-15.79-6.74-7.42.19-12.38,3.5-11.07,7.41Z"/>
        </g>
        <path class="cls-5" d="m173.05,293.87c.07,0,.14-.01.21-.04.25-.11.36-.41.25-.66l-35.82-78.91H20.74c-.28,0-.5.22-.5.5s.22.5.5.5h116.3s35.56,78.33,35.56,78.33c.08.18.27.29.46.29Z"/>
      </g>
      <g>
        <g>
          <rect class="cls-1" x="257.33" y="299.37" width="137.17" height="30.41" transform="translate(651.82 629.16) rotate(-180)"/>
          <rect class="cls-11" x="11.31" y="299.37" width="246.8" height="30.41" transform="translate(269.42 629.16) rotate(-180)"/>
        </g>
        <polygon class="cls-19" points="257.33 299.37 258.11 299.37 394.5 299.37 394.5 304.96 258.11 304.96 257.33 304.96 11.31 304.96 11.31 299.37 257.33 299.37"/>
        <rect class="cls-15" x="251.33" y="293.37" width="149.79" height="7.45" transform="translate(652.44 594.2) rotate(-180)"/>
        <rect class="cls-17" x="5.31" y="293.37" width="246.8" height="7.45" transform="translate(257.42 594.2) rotate(-180)"/>
      </g>
    </g>
  </g>
</svg>